<mxfile host="app.diagrams.net" modified="2021-10-08T09:44:25.192Z" agent="5.0 (X11; Linux x86_64) AppleWebKit/537.36 (KHTML, like Gecko) Chrome/94.0.4606.61 Safari/537.36" etag="IZaCYc-Qd-AEoTSpx0-Q" version="15.4.3" type="github">
  <diagram id="tlyze5TvyV3T4wOIRF3i" name="Page-1">
    <mxGraphModel dx="2062" dy="1168" grid="1" gridSize="10" guides="1" tooltips="1" connect="1" arrows="1" fold="1" page="1" pageScale="1" pageWidth="850" pageHeight="1100" math="0" shadow="0">
      <root>
        <mxCell id="0" />
        <mxCell id="1" parent="0" />
        <mxCell id="MQcFKcroyRyCgttCfnS3-1" value="StoragePod" style="rounded=1;whiteSpace=wrap;html=1;verticalAlign=top;dashed=1;strokeColor=#EA6B66;strokeWidth=2;" vertex="1" parent="1">
          <mxGeometry x="160" y="240" width="200" height="200" as="geometry" />
        </mxCell>
        <mxCell id="MQcFKcroyRyCgttCfnS3-8" style="edgeStyle=orthogonalEdgeStyle;rounded=0;orthogonalLoop=1;jettySize=auto;html=1;exitX=0.5;exitY=1;exitDx=0;exitDy=0;entryX=1;entryY=0.5;entryDx=0;entryDy=0;" edge="1" parent="1" source="MQcFKcroyRyCgttCfnS3-2" target="MQcFKcroyRyCgttCfnS3-5">
          <mxGeometry relative="1" as="geometry" />
        </mxCell>
        <mxCell id="MQcFKcroyRyCgttCfnS3-2" value="DataPod" style="rounded=1;whiteSpace=wrap;html=1;dashed=1;verticalAlign=top;strokeColor=#EA6B66;strokeWidth=2;" vertex="1" parent="1">
          <mxGeometry x="480" y="240" width="200" height="200" as="geometry" />
        </mxCell>
        <mxCell id="MQcFKcroyRyCgttCfnS3-4" value="S3 Ninja" style="rounded=1;whiteSpace=wrap;html=1;dashed=1;verticalAlign=top;" vertex="1" parent="1">
          <mxGeometry x="230" y="380" width="60" height="60" as="geometry" />
        </mxCell>
        <mxCell id="MQcFKcroyRyCgttCfnS3-9" style="edgeStyle=orthogonalEdgeStyle;rounded=0;orthogonalLoop=1;jettySize=auto;html=1;exitX=0;exitY=0.5;exitDx=0;exitDy=0;entryX=0.5;entryY=1;entryDx=0;entryDy=0;" edge="1" parent="1" source="MQcFKcroyRyCgttCfnS3-5" target="MQcFKcroyRyCgttCfnS3-4">
          <mxGeometry relative="1" as="geometry" />
        </mxCell>
        <mxCell id="MQcFKcroyRyCgttCfnS3-5" value="CronJobPod" style="rounded=1;whiteSpace=wrap;html=1;dashed=1;verticalAlign=top;strokeWidth=2;" vertex="1" parent="1">
          <mxGeometry x="310" y="520" width="200" height="200" as="geometry" />
        </mxCell>
        <mxCell id="MQcFKcroyRyCgttCfnS3-7" style="edgeStyle=orthogonalEdgeStyle;rounded=0;orthogonalLoop=1;jettySize=auto;html=1;exitX=0.5;exitY=0;exitDx=0;exitDy=0;entryX=0.5;entryY=1;entryDx=0;entryDy=0;" edge="1" parent="1" source="MQcFKcroyRyCgttCfnS3-6" target="MQcFKcroyRyCgttCfnS3-5">
          <mxGeometry relative="1" as="geometry" />
        </mxCell>
        <mxCell id="MQcFKcroyRyCgttCfnS3-6" value="TestRunnerPod" style="rounded=1;whiteSpace=wrap;html=1;dashed=1;verticalAlign=top;strokeColor=#EA6B66;strokeWidth=2;" vertex="1" parent="1">
          <mxGeometry x="310" y="800" width="200" height="200" as="geometry" />
        </mxCell>
        <mxCell id="MQcFKcroyRyCgttCfnS3-10" value="Trigger CronJob" style="text;strokeColor=none;fillColor=none;html=1;fontSize=16;fontStyle=0;verticalAlign=middle;align=left;dashed=1;" vertex="1" parent="1">
          <mxGeometry x="420" y="740" width="140" height="40" as="geometry" />
        </mxCell>
        <mxCell id="MQcFKcroyRyCgttCfnS3-11" value="Download Data" style="text;strokeColor=none;fillColor=none;html=1;fontSize=16;fontStyle=0;verticalAlign=middle;align=left;dashed=1;" vertex="1" parent="1">
          <mxGeometry x="590" y="460" width="140" height="40" as="geometry" />
        </mxCell>
        <mxCell id="MQcFKcroyRyCgttCfnS3-12" value="Push to S3" style="text;strokeColor=none;fillColor=none;html=1;fontSize=16;fontStyle=0;verticalAlign=middle;align=left;dashed=1;" vertex="1" parent="1">
          <mxGeometry x="270" y="460" width="140" height="40" as="geometry" />
        </mxCell>
      </root>
    </mxGraphModel>
  </diagram>
</mxfile>
